<svg xmlns="http://www.w3.org/2000/svg" xmlns:xlink="http://www.w3.org/1999/xlink" width="703px" height="183px" version="1.1"><defs/><g transform="translate(0.5,0.5)"><rect x="381" y="51" width="320" height="80" fill="#ffffff" stroke="#000000" pointer-events="none"/><rect x="1" y="121" width="150" height="60" fill="none" stroke="none" pointer-events="none"/><rect x="1" y="121" width="150" height="60" fill="#ffffff" stroke="#000000" pointer-events="none"/><rect x="31" y="131" width="80" height="40" fill="none" stroke="none" pointer-events="none"/><g fill="#000000" font-family="Helvetica" text-anchor="middle" font-size="12px"><text x="71" y="155">Shared Pointer 2</text></g><rect x="1" y="1" width="150" height="60" fill="none" stroke="none" pointer-events="none"/><rect x="1" y="1" width="150" height="60" fill="#ffffff" stroke="#000000" pointer-events="none"/><rect x="21" y="11" width="80" height="40" fill="none" stroke="none" pointer-events="none"/><g fill="#000000" font-family="Helvetica" text-anchor="middle" font-size="12px"><text x="61" y="35">Shared Pointer 1</text></g><rect x="501" y="61" width="190" height="60" fill="none" stroke="none" pointer-events="none"/><rect x="501" y="61" width="190" height="60" fill="#ffffff" stroke="#000000" pointer-events="none"/><rect x="566" y="71" width="80" height="40" fill="none" stroke="none" pointer-events="none"/><g fill="#000000" font-family="Helvetica" text-anchor="middle" font-size="12px"><text x="606" y="95">Resource</text></g><rect x="391" y="61" width="100" height="60" fill="#ffffff" stroke="#000000" pointer-events="none"/><rect x="401" y="71" width="80" height="40" fill="none" stroke="none" pointer-events="none"/><g fill="#000000" font-family="Helvetica" text-anchor="middle" font-size="12px"><text x="441" y="88">Reference</text><text x="441" y="102">Count</text></g><path d="M 151 31 L 171 31 Q 181 31 190 34 L 342 88 Q 351 91 361 91 L 375 91" fill="none" stroke="#000000" stroke-miterlimit="10" pointer-events="none"/><path d="M 380 91 L 373 95 L 375 91 L 373 88 Z" fill="#000000" stroke="#000000" stroke-miterlimit="10" pointer-events="none"/><path d="M 151 151 L 171 151 Q 181 151 190 148 L 342 94 Q 351 91 361 91 L 375 91" fill="none" stroke="#000000" stroke-miterlimit="10" pointer-events="none"/><path d="M 380 91 L 373 95 L 375 91 L 373 88 Z" fill="#000000" stroke="#000000" stroke-miterlimit="10" pointer-events="none"/></g></svg>