<?xml version="1.0" standalone="no"?>
<svg xmlns="http://www.w3.org/2000/svg" version="1.1" width="245" height="245">
	<!-- Created with https://api.qrserver.com (QR Code API, see goQR.me/api for information) -->
	<title>QR Code</title>
	<desc>https://advanced-cxx.herokuapp.com/feedback/029e57a3-3f57-4e99-8b56-2de54c9f6941</desc>
	<rect style="fill:rgb(255, 255, 255);fill-opacity:1" x="0" y="0" width="245" height="245" />
	<g id="elements">
		<path style="fill:rgb(0, 0, 0)" d="M 0,0 l 5,0 0,5 -5,0 z M 5,0 l 5,0 0,5 -5,0 z M 10,0 l 5,0 0,5 -5,0 z M 15,0 l 5,0 0,5 -5,0 z M 20,0 l 5,0 0,5 -5,0 z M 25,0 l 5,0 0,5 -5,0 z M 30,0 l 5,0 0,5 -5,0 z M 40,0 l 5,0 0,5 -5,0 z M 55,0 l 5,0 0,5 -5,0 z M 60,0 l 5,0 0,5 -5,0 z M 70,0 l 5,0 0,5 -5,0 z M 85,0 l 5,0 0,5 -5,0 z M 90,0 l 5,0 0,5 -5,0 z M 115,0 l 5,0 0,5 -5,0 z M 125,0 l 5,0 0,5 -5,0 z M 130,0 l 5,0 0,5 -5,0 z M 150,0 l 5,0 0,5 -5,0 z M 155,0 l 5,0 0,5 -5,0 z M 200,0 l 5,0 0,5 -5,0 z M 210,0 l 5,0 0,5 -5,0 z M 215,0 l 5,0 0,5 -5,0 z M 220,0 l 5,0 0,5 -5,0 z M 225,0 l 5,0 0,5 -5,0 z M 230,0 l 5,0 0,5 -5,0 z M 235,0 l 5,0 0,5 -5,0 z M 240,0 l 5,0 0,5 -5,0 z M 0,5 l 5,0 0,5 -5,0 z M 30,5 l 5,0 0,5 -5,0 z M 40,5 l 5,0 0,5 -5,0 z M 50,5 l 5,0 0,5 -5,0 z M 55,5 l 5,0 0,5 -5,0 z M 65,5 l 5,0 0,5 -5,0 z M 75,5 l 5,0 0,5 -5,0 z M 80,5 l 5,0 0,5 -5,0 z M 85,5 l 5,0 0,5 -5,0 z M 95,5 l 5,0 0,5 -5,0 z M 110,5 l 5,0 0,5 -5,0 z M 130,5 l 5,0 0,5 -5,0 z M 140,5 l 5,0 0,5 -5,0 z M 145,5 l 5,0 0,5 -5,0 z M 165,5 l 5,0 0,5 -5,0 z M 170,5 l 5,0 0,5 -5,0 z M 180,5 l 5,0 0,5 -5,0 z M 185,5 l 5,0 0,5 -5,0 z M 190,5 l 5,0 0,5 -5,0 z M 195,5 l 5,0 0,5 -5,0 z M 200,5 l 5,0 0,5 -5,0 z M 210,5 l 5,0 0,5 -5,0 z M 240,5 l 5,0 0,5 -5,0 z M 0,10 l 5,0 0,5 -5,0 z M 10,10 l 5,0 0,5 -5,0 z M 15,10 l 5,0 0,5 -5,0 z M 20,10 l 5,0 0,5 -5,0 z M 30,10 l 5,0 0,5 -5,0 z M 40,10 l 5,0 0,5 -5,0 z M 45,10 l 5,0 0,5 -5,0 z M 65,10 l 5,0 0,5 -5,0 z M 80,10 l 5,0 0,5 -5,0 z M 90,10 l 5,0 0,5 -5,0 z M 120,10 l 5,0 0,5 -5,0 z M 125,10 l 5,0 0,5 -5,0 z M 130,10 l 5,0 0,5 -5,0 z M 135,10 l 5,0 0,5 -5,0 z M 155,10 l 5,0 0,5 -5,0 z M 175,10 l 5,0 0,5 -5,0 z M 195,10 l 5,0 0,5 -5,0 z M 200,10 l 5,0 0,5 -5,0 z M 210,10 l 5,0 0,5 -5,0 z M 220,10 l 5,0 0,5 -5,0 z M 225,10 l 5,0 0,5 -5,0 z M 230,10 l 5,0 0,5 -5,0 z M 240,10 l 5,0 0,5 -5,0 z M 0,15 l 5,0 0,5 -5,0 z M 10,15 l 5,0 0,5 -5,0 z M 15,15 l 5,0 0,5 -5,0 z M 20,15 l 5,0 0,5 -5,0 z M 30,15 l 5,0 0,5 -5,0 z M 45,15 l 5,0 0,5 -5,0 z M 50,15 l 5,0 0,5 -5,0 z M 60,15 l 5,0 0,5 -5,0 z M 75,15 l 5,0 0,5 -5,0 z M 80,15 l 5,0 0,5 -5,0 z M 90,15 l 5,0 0,5 -5,0 z M 100,15 l 5,0 0,5 -5,0 z M 105,15 l 5,0 0,5 -5,0 z M 115,15 l 5,0 0,5 -5,0 z M 135,15 l 5,0 0,5 -5,0 z M 150,15 l 5,0 0,5 -5,0 z M 155,15 l 5,0 0,5 -5,0 z M 160,15 l 5,0 0,5 -5,0 z M 175,15 l 5,0 0,5 -5,0 z M 180,15 l 5,0 0,5 -5,0 z M 195,15 l 5,0 0,5 -5,0 z M 210,15 l 5,0 0,5 -5,0 z M 220,15 l 5,0 0,5 -5,0 z M 225,15 l 5,0 0,5 -5,0 z M 230,15 l 5,0 0,5 -5,0 z M 240,15 l 5,0 0,5 -5,0 z M 0,20 l 5,0 0,5 -5,0 z M 10,20 l 5,0 0,5 -5,0 z M 15,20 l 5,0 0,5 -5,0 z M 20,20 l 5,0 0,5 -5,0 z M 30,20 l 5,0 0,5 -5,0 z M 45,20 l 5,0 0,5 -5,0 z M 50,20 l 5,0 0,5 -5,0 z M 70,20 l 5,0 0,5 -5,0 z M 75,20 l 5,0 0,5 -5,0 z M 80,20 l 5,0 0,5 -5,0 z M 100,20 l 5,0 0,5 -5,0 z M 110,20 l 5,0 0,5 -5,0 z M 115,20 l 5,0 0,5 -5,0 z M 120,20 l 5,0 0,5 -5,0 z M 125,20 l 5,0 0,5 -5,0 z M 130,20 l 5,0 0,5 -5,0 z M 135,20 l 5,0 0,5 -5,0 z M 140,20 l 5,0 0,5 -5,0 z M 155,20 l 5,0 0,5 -5,0 z M 180,20 l 5,0 0,5 -5,0 z M 185,20 l 5,0 0,5 -5,0 z M 210,20 l 5,0 0,5 -5,0 z M 220,20 l 5,0 0,5 -5,0 z M 225,20 l 5,0 0,5 -5,0 z M 230,20 l 5,0 0,5 -5,0 z M 240,20 l 5,0 0,5 -5,0 z M 0,25 l 5,0 0,5 -5,0 z M 30,25 l 5,0 0,5 -5,0 z M 40,25 l 5,0 0,5 -5,0 z M 45,25 l 5,0 0,5 -5,0 z M 55,25 l 5,0 0,5 -5,0 z M 70,25 l 5,0 0,5 -5,0 z M 75,25 l 5,0 0,5 -5,0 z M 100,25 l 5,0 0,5 -5,0 z M 105,25 l 5,0 0,5 -5,0 z M 110,25 l 5,0 0,5 -5,0 z M 130,25 l 5,0 0,5 -5,0 z M 145,25 l 5,0 0,5 -5,0 z M 150,25 l 5,0 0,5 -5,0 z M 165,25 l 5,0 0,5 -5,0 z M 170,25 l 5,0 0,5 -5,0 z M 175,25 l 5,0 0,5 -5,0 z M 180,25 l 5,0 0,5 -5,0 z M 190,25 l 5,0 0,5 -5,0 z M 210,25 l 5,0 0,5 -5,0 z M 240,25 l 5,0 0,5 -5,0 z M 0,30 l 5,0 0,5 -5,0 z M 5,30 l 5,0 0,5 -5,0 z M 10,30 l 5,0 0,5 -5,0 z M 15,30 l 5,0 0,5 -5,0 z M 20,30 l 5,0 0,5 -5,0 z M 25,30 l 5,0 0,5 -5,0 z M 30,30 l 5,0 0,5 -5,0 z M 40,30 l 5,0 0,5 -5,0 z M 50,30 l 5,0 0,5 -5,0 z M 60,30 l 5,0 0,5 -5,0 z M 70,30 l 5,0 0,5 -5,0 z M 80,30 l 5,0 0,5 -5,0 z M 90,30 l 5,0 0,5 -5,0 z M 100,30 l 5,0 0,5 -5,0 z M 110,30 l 5,0 0,5 -5,0 z M 120,30 l 5,0 0,5 -5,0 z M 130,30 l 5,0 0,5 -5,0 z M 140,30 l 5,0 0,5 -5,0 z M 150,30 l 5,0 0,5 -5,0 z M 160,30 l 5,0 0,5 -5,0 z M 170,30 l 5,0 0,5 -5,0 z M 180,30 l 5,0 0,5 -5,0 z M 190,30 l 5,0 0,5 -5,0 z M 200,30 l 5,0 0,5 -5,0 z M 210,30 l 5,0 0,5 -5,0 z M 215,30 l 5,0 0,5 -5,0 z M 220,30 l 5,0 0,5 -5,0 z M 225,30 l 5,0 0,5 -5,0 z M 230,30 l 5,0 0,5 -5,0 z M 235,30 l 5,0 0,5 -5,0 z M 240,30 l 5,0 0,5 -5,0 z M 40,35 l 5,0 0,5 -5,0 z M 45,35 l 5,0 0,5 -5,0 z M 50,35 l 5,0 0,5 -5,0 z M 60,35 l 5,0 0,5 -5,0 z M 65,35 l 5,0 0,5 -5,0 z M 70,35 l 5,0 0,5 -5,0 z M 80,35 l 5,0 0,5 -5,0 z M 95,35 l 5,0 0,5 -5,0 z M 105,35 l 5,0 0,5 -5,0 z M 110,35 l 5,0 0,5 -5,0 z M 130,35 l 5,0 0,5 -5,0 z M 145,35 l 5,0 0,5 -5,0 z M 150,35 l 5,0 0,5 -5,0 z M 155,35 l 5,0 0,5 -5,0 z M 165,35 l 5,0 0,5 -5,0 z M 180,35 l 5,0 0,5 -5,0 z M 185,35 l 5,0 0,5 -5,0 z M 200,35 l 5,0 0,5 -5,0 z M 10,40 l 5,0 0,5 -5,0 z M 15,40 l 5,0 0,5 -5,0 z M 20,40 l 5,0 0,5 -5,0 z M 30,40 l 5,0 0,5 -5,0 z M 40,40 l 5,0 0,5 -5,0 z M 45,40 l 5,0 0,5 -5,0 z M 55,40 l 5,0 0,5 -5,0 z M 60,40 l 5,0 0,5 -5,0 z M 80,40 l 5,0 0,5 -5,0 z M 85,40 l 5,0 0,5 -5,0 z M 90,40 l 5,0 0,5 -5,0 z M 100,40 l 5,0 0,5 -5,0 z M 105,40 l 5,0 0,5 -5,0 z M 110,40 l 5,0 0,5 -5,0 z M 115,40 l 5,0 0,5 -5,0 z M 120,40 l 5,0 0,5 -5,0 z M 125,40 l 5,0 0,5 -5,0 z M 130,40 l 5,0 0,5 -5,0 z M 135,40 l 5,0 0,5 -5,0 z M 145,40 l 5,0 0,5 -5,0 z M 150,40 l 5,0 0,5 -5,0 z M 155,40 l 5,0 0,5 -5,0 z M 160,40 l 5,0 0,5 -5,0 z M 170,40 l 5,0 0,5 -5,0 z M 180,40 l 5,0 0,5 -5,0 z M 185,40 l 5,0 0,5 -5,0 z M 195,40 l 5,0 0,5 -5,0 z M 200,40 l 5,0 0,5 -5,0 z M 205,40 l 5,0 0,5 -5,0 z M 210,40 l 5,0 0,5 -5,0 z M 215,40 l 5,0 0,5 -5,0 z M 230,40 l 5,0 0,5 -5,0 z M 235,40 l 5,0 0,5 -5,0 z M 240,40 l 5,0 0,5 -5,0 z M 5,45 l 5,0 0,5 -5,0 z M 10,45 l 5,0 0,5 -5,0 z M 35,45 l 5,0 0,5 -5,0 z M 60,45 l 5,0 0,5 -5,0 z M 70,45 l 5,0 0,5 -5,0 z M 75,45 l 5,0 0,5 -5,0 z M 80,45 l 5,0 0,5 -5,0 z M 85,45 l 5,0 0,5 -5,0 z M 90,45 l 5,0 0,5 -5,0 z M 100,45 l 5,0 0,5 -5,0 z M 110,45 l 5,0 0,5 -5,0 z M 115,45 l 5,0 0,5 -5,0 z M 120,45 l 5,0 0,5 -5,0 z M 135,45 l 5,0 0,5 -5,0 z M 140,45 l 5,0 0,5 -5,0 z M 145,45 l 5,0 0,5 -5,0 z M 150,45 l 5,0 0,5 -5,0 z M 165,45 l 5,0 0,5 -5,0 z M 180,45 l 5,0 0,5 -5,0 z M 195,45 l 5,0 0,5 -5,0 z M 210,45 l 5,0 0,5 -5,0 z M 25,50 l 5,0 0,5 -5,0 z M 30,50 l 5,0 0,5 -5,0 z M 35,50 l 5,0 0,5 -5,0 z M 55,50 l 5,0 0,5 -5,0 z M 65,50 l 5,0 0,5 -5,0 z M 75,50 l 5,0 0,5 -5,0 z M 80,50 l 5,0 0,5 -5,0 z M 85,50 l 5,0 0,5 -5,0 z M 110,50 l 5,0 0,5 -5,0 z M 115,50 l 5,0 0,5 -5,0 z M 120,50 l 5,0 0,5 -5,0 z M 140,50 l 5,0 0,5 -5,0 z M 145,50 l 5,0 0,5 -5,0 z M 150,50 l 5,0 0,5 -5,0 z M 165,50 l 5,0 0,5 -5,0 z M 170,50 l 5,0 0,5 -5,0 z M 180,50 l 5,0 0,5 -5,0 z M 185,50 l 5,0 0,5 -5,0 z M 190,50 l 5,0 0,5 -5,0 z M 195,50 l 5,0 0,5 -5,0 z M 205,50 l 5,0 0,5 -5,0 z M 235,50 l 5,0 0,5 -5,0 z M 240,50 l 5,0 0,5 -5,0 z M 0,55 l 5,0 0,5 -5,0 z M 5,55 l 5,0 0,5 -5,0 z M 15,55 l 5,0 0,5 -5,0 z M 25,55 l 5,0 0,5 -5,0 z M 40,55 l 5,0 0,5 -5,0 z M 45,55 l 5,0 0,5 -5,0 z M 50,55 l 5,0 0,5 -5,0 z M 60,55 l 5,0 0,5 -5,0 z M 75,55 l 5,0 0,5 -5,0 z M 95,55 l 5,0 0,5 -5,0 z M 140,55 l 5,0 0,5 -5,0 z M 150,55 l 5,0 0,5 -5,0 z M 155,55 l 5,0 0,5 -5,0 z M 160,55 l 5,0 0,5 -5,0 z M 175,55 l 5,0 0,5 -5,0 z M 190,55 l 5,0 0,5 -5,0 z M 195,55 l 5,0 0,5 -5,0 z M 200,55 l 5,0 0,5 -5,0 z M 205,55 l 5,0 0,5 -5,0 z M 210,55 l 5,0 0,5 -5,0 z M 220,55 l 5,0 0,5 -5,0 z M 225,55 l 5,0 0,5 -5,0 z M 235,55 l 5,0 0,5 -5,0 z M 30,60 l 5,0 0,5 -5,0 z M 35,60 l 5,0 0,5 -5,0 z M 40,60 l 5,0 0,5 -5,0 z M 45,60 l 5,0 0,5 -5,0 z M 50,60 l 5,0 0,5 -5,0 z M 55,60 l 5,0 0,5 -5,0 z M 75,60 l 5,0 0,5 -5,0 z M 100,60 l 5,0 0,5 -5,0 z M 115,60 l 5,0 0,5 -5,0 z M 135,60 l 5,0 0,5 -5,0 z M 140,60 l 5,0 0,5 -5,0 z M 160,60 l 5,0 0,5 -5,0 z M 180,60 l 5,0 0,5 -5,0 z M 185,60 l 5,0 0,5 -5,0 z M 195,60 l 5,0 0,5 -5,0 z M 200,60 l 5,0 0,5 -5,0 z M 210,60 l 5,0 0,5 -5,0 z M 215,60 l 5,0 0,5 -5,0 z M 230,60 l 5,0 0,5 -5,0 z M 240,60 l 5,0 0,5 -5,0 z M 10,65 l 5,0 0,5 -5,0 z M 20,65 l 5,0 0,5 -5,0 z M 40,65 l 5,0 0,5 -5,0 z M 50,65 l 5,0 0,5 -5,0 z M 55,65 l 5,0 0,5 -5,0 z M 65,65 l 5,0 0,5 -5,0 z M 70,65 l 5,0 0,5 -5,0 z M 75,65 l 5,0 0,5 -5,0 z M 90,65 l 5,0 0,5 -5,0 z M 95,65 l 5,0 0,5 -5,0 z M 105,65 l 5,0 0,5 -5,0 z M 110,65 l 5,0 0,5 -5,0 z M 120,65 l 5,0 0,5 -5,0 z M 150,65 l 5,0 0,5 -5,0 z M 165,65 l 5,0 0,5 -5,0 z M 195,65 l 5,0 0,5 -5,0 z M 205,65 l 5,0 0,5 -5,0 z M 210,65 l 5,0 0,5 -5,0 z M 220,65 l 5,0 0,5 -5,0 z M 235,65 l 5,0 0,5 -5,0 z M 10,70 l 5,0 0,5 -5,0 z M 15,70 l 5,0 0,5 -5,0 z M 20,70 l 5,0 0,5 -5,0 z M 25,70 l 5,0 0,5 -5,0 z M 30,70 l 5,0 0,5 -5,0 z M 35,70 l 5,0 0,5 -5,0 z M 40,70 l 5,0 0,5 -5,0 z M 50,70 l 5,0 0,5 -5,0 z M 55,70 l 5,0 0,5 -5,0 z M 65,70 l 5,0 0,5 -5,0 z M 70,70 l 5,0 0,5 -5,0 z M 85,70 l 5,0 0,5 -5,0 z M 115,70 l 5,0 0,5 -5,0 z M 130,70 l 5,0 0,5 -5,0 z M 135,70 l 5,0 0,5 -5,0 z M 140,70 l 5,0 0,5 -5,0 z M 155,70 l 5,0 0,5 -5,0 z M 160,70 l 5,0 0,5 -5,0 z M 170,70 l 5,0 0,5 -5,0 z M 180,70 l 5,0 0,5 -5,0 z M 190,70 l 5,0 0,5 -5,0 z M 195,70 l 5,0 0,5 -5,0 z M 200,70 l 5,0 0,5 -5,0 z M 215,70 l 5,0 0,5 -5,0 z M 220,70 l 5,0 0,5 -5,0 z M 235,70 l 5,0 0,5 -5,0 z M 240,70 l 5,0 0,5 -5,0 z M 0,75 l 5,0 0,5 -5,0 z M 5,75 l 5,0 0,5 -5,0 z M 15,75 l 5,0 0,5 -5,0 z M 25,75 l 5,0 0,5 -5,0 z M 45,75 l 5,0 0,5 -5,0 z M 50,75 l 5,0 0,5 -5,0 z M 60,75 l 5,0 0,5 -5,0 z M 65,75 l 5,0 0,5 -5,0 z M 75,75 l 5,0 0,5 -5,0 z M 85,75 l 5,0 0,5 -5,0 z M 95,75 l 5,0 0,5 -5,0 z M 105,75 l 5,0 0,5 -5,0 z M 115,75 l 5,0 0,5 -5,0 z M 120,75 l 5,0 0,5 -5,0 z M 125,75 l 5,0 0,5 -5,0 z M 140,75 l 5,0 0,5 -5,0 z M 145,75 l 5,0 0,5 -5,0 z M 170,75 l 5,0 0,5 -5,0 z M 175,75 l 5,0 0,5 -5,0 z M 195,75 l 5,0 0,5 -5,0 z M 200,75 l 5,0 0,5 -5,0 z M 210,75 l 5,0 0,5 -5,0 z M 220,75 l 5,0 0,5 -5,0 z M 225,75 l 5,0 0,5 -5,0 z M 235,75 l 5,0 0,5 -5,0 z M 240,75 l 5,0 0,5 -5,0 z M 0,80 l 5,0 0,5 -5,0 z M 5,80 l 5,0 0,5 -5,0 z M 10,80 l 5,0 0,5 -5,0 z M 15,80 l 5,0 0,5 -5,0 z M 20,80 l 5,0 0,5 -5,0 z M 30,80 l 5,0 0,5 -5,0 z M 35,80 l 5,0 0,5 -5,0 z M 50,80 l 5,0 0,5 -5,0 z M 55,80 l 5,0 0,5 -5,0 z M 60,80 l 5,0 0,5 -5,0 z M 70,80 l 5,0 0,5 -5,0 z M 80,80 l 5,0 0,5 -5,0 z M 90,80 l 5,0 0,5 -5,0 z M 95,80 l 5,0 0,5 -5,0 z M 110,80 l 5,0 0,5 -5,0 z M 115,80 l 5,0 0,5 -5,0 z M 125,80 l 5,0 0,5 -5,0 z M 140,80 l 5,0 0,5 -5,0 z M 145,80 l 5,0 0,5 -5,0 z M 155,80 l 5,0 0,5 -5,0 z M 160,80 l 5,0 0,5 -5,0 z M 165,80 l 5,0 0,5 -5,0 z M 170,80 l 5,0 0,5 -5,0 z M 180,80 l 5,0 0,5 -5,0 z M 205,80 l 5,0 0,5 -5,0 z M 215,80 l 5,0 0,5 -5,0 z M 230,80 l 5,0 0,5 -5,0 z M 240,80 l 5,0 0,5 -5,0 z M 5,85 l 5,0 0,5 -5,0 z M 15,85 l 5,0 0,5 -5,0 z M 25,85 l 5,0 0,5 -5,0 z M 40,85 l 5,0 0,5 -5,0 z M 75,85 l 5,0 0,5 -5,0 z M 80,85 l 5,0 0,5 -5,0 z M 85,85 l 5,0 0,5 -5,0 z M 90,85 l 5,0 0,5 -5,0 z M 95,85 l 5,0 0,5 -5,0 z M 100,85 l 5,0 0,5 -5,0 z M 115,85 l 5,0 0,5 -5,0 z M 125,85 l 5,0 0,5 -5,0 z M 140,85 l 5,0 0,5 -5,0 z M 145,85 l 5,0 0,5 -5,0 z M 150,85 l 5,0 0,5 -5,0 z M 155,85 l 5,0 0,5 -5,0 z M 160,85 l 5,0 0,5 -5,0 z M 170,85 l 5,0 0,5 -5,0 z M 175,85 l 5,0 0,5 -5,0 z M 180,85 l 5,0 0,5 -5,0 z M 195,85 l 5,0 0,5 -5,0 z M 210,85 l 5,0 0,5 -5,0 z M 215,85 l 5,0 0,5 -5,0 z M 225,85 l 5,0 0,5 -5,0 z M 230,85 l 5,0 0,5 -5,0 z M 5,90 l 5,0 0,5 -5,0 z M 10,90 l 5,0 0,5 -5,0 z M 20,90 l 5,0 0,5 -5,0 z M 30,90 l 5,0 0,5 -5,0 z M 35,90 l 5,0 0,5 -5,0 z M 40,90 l 5,0 0,5 -5,0 z M 45,90 l 5,0 0,5 -5,0 z M 50,90 l 5,0 0,5 -5,0 z M 70,90 l 5,0 0,5 -5,0 z M 75,90 l 5,0 0,5 -5,0 z M 85,90 l 5,0 0,5 -5,0 z M 90,90 l 5,0 0,5 -5,0 z M 100,90 l 5,0 0,5 -5,0 z M 110,90 l 5,0 0,5 -5,0 z M 115,90 l 5,0 0,5 -5,0 z M 125,90 l 5,0 0,5 -5,0 z M 135,90 l 5,0 0,5 -5,0 z M 150,90 l 5,0 0,5 -5,0 z M 165,90 l 5,0 0,5 -5,0 z M 180,90 l 5,0 0,5 -5,0 z M 185,90 l 5,0 0,5 -5,0 z M 195,90 l 5,0 0,5 -5,0 z M 200,90 l 5,0 0,5 -5,0 z M 205,90 l 5,0 0,5 -5,0 z M 215,90 l 5,0 0,5 -5,0 z M 220,90 l 5,0 0,5 -5,0 z M 225,90 l 5,0 0,5 -5,0 z M 235,90 l 5,0 0,5 -5,0 z M 240,90 l 5,0 0,5 -5,0 z M 0,95 l 5,0 0,5 -5,0 z M 5,95 l 5,0 0,5 -5,0 z M 20,95 l 5,0 0,5 -5,0 z M 35,95 l 5,0 0,5 -5,0 z M 40,95 l 5,0 0,5 -5,0 z M 45,95 l 5,0 0,5 -5,0 z M 50,95 l 5,0 0,5 -5,0 z M 70,95 l 5,0 0,5 -5,0 z M 75,95 l 5,0 0,5 -5,0 z M 85,95 l 5,0 0,5 -5,0 z M 95,95 l 5,0 0,5 -5,0 z M 105,95 l 5,0 0,5 -5,0 z M 125,95 l 5,0 0,5 -5,0 z M 135,95 l 5,0 0,5 -5,0 z M 145,95 l 5,0 0,5 -5,0 z M 150,95 l 5,0 0,5 -5,0 z M 155,95 l 5,0 0,5 -5,0 z M 160,95 l 5,0 0,5 -5,0 z M 185,95 l 5,0 0,5 -5,0 z M 190,95 l 5,0 0,5 -5,0 z M 210,95 l 5,0 0,5 -5,0 z M 215,95 l 5,0 0,5 -5,0 z M 220,95 l 5,0 0,5 -5,0 z M 235,95 l 5,0 0,5 -5,0 z M 0,100 l 5,0 0,5 -5,0 z M 10,100 l 5,0 0,5 -5,0 z M 15,100 l 5,0 0,5 -5,0 z M 20,100 l 5,0 0,5 -5,0 z M 25,100 l 5,0 0,5 -5,0 z M 30,100 l 5,0 0,5 -5,0 z M 35,100 l 5,0 0,5 -5,0 z M 45,100 l 5,0 0,5 -5,0 z M 50,100 l 5,0 0,5 -5,0 z M 55,100 l 5,0 0,5 -5,0 z M 60,100 l 5,0 0,5 -5,0 z M 65,100 l 5,0 0,5 -5,0 z M 70,100 l 5,0 0,5 -5,0 z M 75,100 l 5,0 0,5 -5,0 z M 80,100 l 5,0 0,5 -5,0 z M 85,100 l 5,0 0,5 -5,0 z M 90,100 l 5,0 0,5 -5,0 z M 95,100 l 5,0 0,5 -5,0 z M 100,100 l 5,0 0,5 -5,0 z M 115,100 l 5,0 0,5 -5,0 z M 120,100 l 5,0 0,5 -5,0 z M 125,100 l 5,0 0,5 -5,0 z M 135,100 l 5,0 0,5 -5,0 z M 140,100 l 5,0 0,5 -5,0 z M 145,100 l 5,0 0,5 -5,0 z M 160,100 l 5,0 0,5 -5,0 z M 165,100 l 5,0 0,5 -5,0 z M 170,100 l 5,0 0,5 -5,0 z M 175,100 l 5,0 0,5 -5,0 z M 180,100 l 5,0 0,5 -5,0 z M 185,100 l 5,0 0,5 -5,0 z M 190,100 l 5,0 0,5 -5,0 z M 200,100 l 5,0 0,5 -5,0 z M 210,100 l 5,0 0,5 -5,0 z M 215,100 l 5,0 0,5 -5,0 z M 230,100 l 5,0 0,5 -5,0 z M 240,100 l 5,0 0,5 -5,0 z M 5,105 l 5,0 0,5 -5,0 z M 10,105 l 5,0 0,5 -5,0 z M 15,105 l 5,0 0,5 -5,0 z M 25,105 l 5,0 0,5 -5,0 z M 40,105 l 5,0 0,5 -5,0 z M 55,105 l 5,0 0,5 -5,0 z M 60,105 l 5,0 0,5 -5,0 z M 70,105 l 5,0 0,5 -5,0 z M 80,105 l 5,0 0,5 -5,0 z M 85,105 l 5,0 0,5 -5,0 z M 125,105 l 5,0 0,5 -5,0 z M 130,105 l 5,0 0,5 -5,0 z M 135,105 l 5,0 0,5 -5,0 z M 150,105 l 5,0 0,5 -5,0 z M 175,105 l 5,0 0,5 -5,0 z M 180,105 l 5,0 0,5 -5,0 z M 195,105 l 5,0 0,5 -5,0 z M 205,105 l 5,0 0,5 -5,0 z M 210,105 l 5,0 0,5 -5,0 z M 5,110 l 5,0 0,5 -5,0 z M 15,110 l 5,0 0,5 -5,0 z M 20,110 l 5,0 0,5 -5,0 z M 25,110 l 5,0 0,5 -5,0 z M 30,110 l 5,0 0,5 -5,0 z M 35,110 l 5,0 0,5 -5,0 z M 40,110 l 5,0 0,5 -5,0 z M 50,110 l 5,0 0,5 -5,0 z M 55,110 l 5,0 0,5 -5,0 z M 65,110 l 5,0 0,5 -5,0 z M 85,110 l 5,0 0,5 -5,0 z M 95,110 l 5,0 0,5 -5,0 z M 100,110 l 5,0 0,5 -5,0 z M 105,110 l 5,0 0,5 -5,0 z M 110,110 l 5,0 0,5 -5,0 z M 115,110 l 5,0 0,5 -5,0 z M 120,110 l 5,0 0,5 -5,0 z M 125,110 l 5,0 0,5 -5,0 z M 130,110 l 5,0 0,5 -5,0 z M 135,110 l 5,0 0,5 -5,0 z M 165,110 l 5,0 0,5 -5,0 z M 170,110 l 5,0 0,5 -5,0 z M 175,110 l 5,0 0,5 -5,0 z M 180,110 l 5,0 0,5 -5,0 z M 190,110 l 5,0 0,5 -5,0 z M 200,110 l 5,0 0,5 -5,0 z M 205,110 l 5,0 0,5 -5,0 z M 210,110 l 5,0 0,5 -5,0 z M 215,110 l 5,0 0,5 -5,0 z M 220,110 l 5,0 0,5 -5,0 z M 235,110 l 5,0 0,5 -5,0 z M 240,110 l 5,0 0,5 -5,0 z M 5,115 l 5,0 0,5 -5,0 z M 10,115 l 5,0 0,5 -5,0 z M 20,115 l 5,0 0,5 -5,0 z M 40,115 l 5,0 0,5 -5,0 z M 45,115 l 5,0 0,5 -5,0 z M 50,115 l 5,0 0,5 -5,0 z M 60,115 l 5,0 0,5 -5,0 z M 65,115 l 5,0 0,5 -5,0 z M 75,115 l 5,0 0,5 -5,0 z M 100,115 l 5,0 0,5 -5,0 z M 105,115 l 5,0 0,5 -5,0 z M 110,115 l 5,0 0,5 -5,0 z M 130,115 l 5,0 0,5 -5,0 z M 145,115 l 5,0 0,5 -5,0 z M 155,115 l 5,0 0,5 -5,0 z M 170,115 l 5,0 0,5 -5,0 z M 175,115 l 5,0 0,5 -5,0 z M 185,115 l 5,0 0,5 -5,0 z M 190,115 l 5,0 0,5 -5,0 z M 195,115 l 5,0 0,5 -5,0 z M 200,115 l 5,0 0,5 -5,0 z M 220,115 l 5,0 0,5 -5,0 z M 240,115 l 5,0 0,5 -5,0 z M 10,120 l 5,0 0,5 -5,0 z M 20,120 l 5,0 0,5 -5,0 z M 30,120 l 5,0 0,5 -5,0 z M 40,120 l 5,0 0,5 -5,0 z M 50,120 l 5,0 0,5 -5,0 z M 55,120 l 5,0 0,5 -5,0 z M 60,120 l 5,0 0,5 -5,0 z M 70,120 l 5,0 0,5 -5,0 z M 75,120 l 5,0 0,5 -5,0 z M 85,120 l 5,0 0,5 -5,0 z M 100,120 l 5,0 0,5 -5,0 z M 110,120 l 5,0 0,5 -5,0 z M 120,120 l 5,0 0,5 -5,0 z M 130,120 l 5,0 0,5 -5,0 z M 145,120 l 5,0 0,5 -5,0 z M 170,120 l 5,0 0,5 -5,0 z M 175,120 l 5,0 0,5 -5,0 z M 180,120 l 5,0 0,5 -5,0 z M 190,120 l 5,0 0,5 -5,0 z M 195,120 l 5,0 0,5 -5,0 z M 200,120 l 5,0 0,5 -5,0 z M 210,120 l 5,0 0,5 -5,0 z M 220,120 l 5,0 0,5 -5,0 z M 225,120 l 5,0 0,5 -5,0 z M 230,120 l 5,0 0,5 -5,0 z M 235,120 l 5,0 0,5 -5,0 z M 0,125 l 5,0 0,5 -5,0 z M 5,125 l 5,0 0,5 -5,0 z M 10,125 l 5,0 0,5 -5,0 z M 20,125 l 5,0 0,5 -5,0 z M 40,125 l 5,0 0,5 -5,0 z M 65,125 l 5,0 0,5 -5,0 z M 75,125 l 5,0 0,5 -5,0 z M 85,125 l 5,0 0,5 -5,0 z M 95,125 l 5,0 0,5 -5,0 z M 100,125 l 5,0 0,5 -5,0 z M 105,125 l 5,0 0,5 -5,0 z M 110,125 l 5,0 0,5 -5,0 z M 130,125 l 5,0 0,5 -5,0 z M 140,125 l 5,0 0,5 -5,0 z M 155,125 l 5,0 0,5 -5,0 z M 175,125 l 5,0 0,5 -5,0 z M 180,125 l 5,0 0,5 -5,0 z M 185,125 l 5,0 0,5 -5,0 z M 200,125 l 5,0 0,5 -5,0 z M 220,125 l 5,0 0,5 -5,0 z M 225,125 l 5,0 0,5 -5,0 z M 0,130 l 5,0 0,5 -5,0 z M 5,130 l 5,0 0,5 -5,0 z M 10,130 l 5,0 0,5 -5,0 z M 20,130 l 5,0 0,5 -5,0 z M 25,130 l 5,0 0,5 -5,0 z M 30,130 l 5,0 0,5 -5,0 z M 35,130 l 5,0 0,5 -5,0 z M 40,130 l 5,0 0,5 -5,0 z M 45,130 l 5,0 0,5 -5,0 z M 50,130 l 5,0 0,5 -5,0 z M 55,130 l 5,0 0,5 -5,0 z M 60,130 l 5,0 0,5 -5,0 z M 75,130 l 5,0 0,5 -5,0 z M 85,130 l 5,0 0,5 -5,0 z M 90,130 l 5,0 0,5 -5,0 z M 95,130 l 5,0 0,5 -5,0 z M 100,130 l 5,0 0,5 -5,0 z M 110,130 l 5,0 0,5 -5,0 z M 115,130 l 5,0 0,5 -5,0 z M 120,130 l 5,0 0,5 -5,0 z M 125,130 l 5,0 0,5 -5,0 z M 130,130 l 5,0 0,5 -5,0 z M 135,130 l 5,0 0,5 -5,0 z M 140,130 l 5,0 0,5 -5,0 z M 145,130 l 5,0 0,5 -5,0 z M 165,130 l 5,0 0,5 -5,0 z M 170,130 l 5,0 0,5 -5,0 z M 175,130 l 5,0 0,5 -5,0 z M 180,130 l 5,0 0,5 -5,0 z M 190,130 l 5,0 0,5 -5,0 z M 195,130 l 5,0 0,5 -5,0 z M 200,130 l 5,0 0,5 -5,0 z M 205,130 l 5,0 0,5 -5,0 z M 210,130 l 5,0 0,5 -5,0 z M 215,130 l 5,0 0,5 -5,0 z M 220,130 l 5,0 0,5 -5,0 z M 225,130 l 5,0 0,5 -5,0 z M 235,130 l 5,0 0,5 -5,0 z M 240,130 l 5,0 0,5 -5,0 z M 0,135 l 5,0 0,5 -5,0 z M 5,135 l 5,0 0,5 -5,0 z M 10,135 l 5,0 0,5 -5,0 z M 45,135 l 5,0 0,5 -5,0 z M 50,135 l 5,0 0,5 -5,0 z M 65,135 l 5,0 0,5 -5,0 z M 70,135 l 5,0 0,5 -5,0 z M 75,135 l 5,0 0,5 -5,0 z M 85,135 l 5,0 0,5 -5,0 z M 95,135 l 5,0 0,5 -5,0 z M 100,135 l 5,0 0,5 -5,0 z M 115,135 l 5,0 0,5 -5,0 z M 120,135 l 5,0 0,5 -5,0 z M 135,135 l 5,0 0,5 -5,0 z M 140,135 l 5,0 0,5 -5,0 z M 160,135 l 5,0 0,5 -5,0 z M 185,135 l 5,0 0,5 -5,0 z M 190,135 l 5,0 0,5 -5,0 z M 200,135 l 5,0 0,5 -5,0 z M 205,135 l 5,0 0,5 -5,0 z M 215,135 l 5,0 0,5 -5,0 z M 240,135 l 5,0 0,5 -5,0 z M 5,140 l 5,0 0,5 -5,0 z M 15,140 l 5,0 0,5 -5,0 z M 20,140 l 5,0 0,5 -5,0 z M 25,140 l 5,0 0,5 -5,0 z M 30,140 l 5,0 0,5 -5,0 z M 35,140 l 5,0 0,5 -5,0 z M 40,140 l 5,0 0,5 -5,0 z M 55,140 l 5,0 0,5 -5,0 z M 75,140 l 5,0 0,5 -5,0 z M 90,140 l 5,0 0,5 -5,0 z M 100,140 l 5,0 0,5 -5,0 z M 110,140 l 5,0 0,5 -5,0 z M 120,140 l 5,0 0,5 -5,0 z M 150,140 l 5,0 0,5 -5,0 z M 155,140 l 5,0 0,5 -5,0 z M 165,140 l 5,0 0,5 -5,0 z M 175,140 l 5,0 0,5 -5,0 z M 180,140 l 5,0 0,5 -5,0 z M 185,140 l 5,0 0,5 -5,0 z M 190,140 l 5,0 0,5 -5,0 z M 195,140 l 5,0 0,5 -5,0 z M 200,140 l 5,0 0,5 -5,0 z M 210,140 l 5,0 0,5 -5,0 z M 220,140 l 5,0 0,5 -5,0 z M 230,140 l 5,0 0,5 -5,0 z M 235,140 l 5,0 0,5 -5,0 z M 240,140 l 5,0 0,5 -5,0 z M 5,145 l 5,0 0,5 -5,0 z M 15,145 l 5,0 0,5 -5,0 z M 25,145 l 5,0 0,5 -5,0 z M 40,145 l 5,0 0,5 -5,0 z M 45,145 l 5,0 0,5 -5,0 z M 55,145 l 5,0 0,5 -5,0 z M 65,145 l 5,0 0,5 -5,0 z M 70,145 l 5,0 0,5 -5,0 z M 80,145 l 5,0 0,5 -5,0 z M 85,145 l 5,0 0,5 -5,0 z M 100,145 l 5,0 0,5 -5,0 z M 105,145 l 5,0 0,5 -5,0 z M 110,145 l 5,0 0,5 -5,0 z M 135,145 l 5,0 0,5 -5,0 z M 150,145 l 5,0 0,5 -5,0 z M 160,145 l 5,0 0,5 -5,0 z M 175,145 l 5,0 0,5 -5,0 z M 180,145 l 5,0 0,5 -5,0 z M 185,145 l 5,0 0,5 -5,0 z M 195,145 l 5,0 0,5 -5,0 z M 205,145 l 5,0 0,5 -5,0 z M 215,145 l 5,0 0,5 -5,0 z M 225,145 l 5,0 0,5 -5,0 z M 230,145 l 5,0 0,5 -5,0 z M 235,145 l 5,0 0,5 -5,0 z M 10,150 l 5,0 0,5 -5,0 z M 15,150 l 5,0 0,5 -5,0 z M 20,150 l 5,0 0,5 -5,0 z M 30,150 l 5,0 0,5 -5,0 z M 35,150 l 5,0 0,5 -5,0 z M 40,150 l 5,0 0,5 -5,0 z M 50,150 l 5,0 0,5 -5,0 z M 60,150 l 5,0 0,5 -5,0 z M 65,150 l 5,0 0,5 -5,0 z M 70,150 l 5,0 0,5 -5,0 z M 80,150 l 5,0 0,5 -5,0 z M 85,150 l 5,0 0,5 -5,0 z M 95,150 l 5,0 0,5 -5,0 z M 100,150 l 5,0 0,5 -5,0 z M 105,150 l 5,0 0,5 -5,0 z M 110,150 l 5,0 0,5 -5,0 z M 115,150 l 5,0 0,5 -5,0 z M 125,150 l 5,0 0,5 -5,0 z M 130,150 l 5,0 0,5 -5,0 z M 140,150 l 5,0 0,5 -5,0 z M 145,150 l 5,0 0,5 -5,0 z M 150,150 l 5,0 0,5 -5,0 z M 165,150 l 5,0 0,5 -5,0 z M 170,150 l 5,0 0,5 -5,0 z M 180,150 l 5,0 0,5 -5,0 z M 190,150 l 5,0 0,5 -5,0 z M 205,150 l 5,0 0,5 -5,0 z M 210,150 l 5,0 0,5 -5,0 z M 230,150 l 5,0 0,5 -5,0 z M 240,150 l 5,0 0,5 -5,0 z M 5,155 l 5,0 0,5 -5,0 z M 15,155 l 5,0 0,5 -5,0 z M 25,155 l 5,0 0,5 -5,0 z M 35,155 l 5,0 0,5 -5,0 z M 70,155 l 5,0 0,5 -5,0 z M 75,155 l 5,0 0,5 -5,0 z M 80,155 l 5,0 0,5 -5,0 z M 95,155 l 5,0 0,5 -5,0 z M 100,155 l 5,0 0,5 -5,0 z M 105,155 l 5,0 0,5 -5,0 z M 110,155 l 5,0 0,5 -5,0 z M 120,155 l 5,0 0,5 -5,0 z M 130,155 l 5,0 0,5 -5,0 z M 135,155 l 5,0 0,5 -5,0 z M 140,155 l 5,0 0,5 -5,0 z M 150,155 l 5,0 0,5 -5,0 z M 170,155 l 5,0 0,5 -5,0 z M 175,155 l 5,0 0,5 -5,0 z M 180,155 l 5,0 0,5 -5,0 z M 185,155 l 5,0 0,5 -5,0 z M 200,155 l 5,0 0,5 -5,0 z M 205,155 l 5,0 0,5 -5,0 z M 215,155 l 5,0 0,5 -5,0 z M 225,155 l 5,0 0,5 -5,0 z M 15,160 l 5,0 0,5 -5,0 z M 25,160 l 5,0 0,5 -5,0 z M 30,160 l 5,0 0,5 -5,0 z M 65,160 l 5,0 0,5 -5,0 z M 75,160 l 5,0 0,5 -5,0 z M 85,160 l 5,0 0,5 -5,0 z M 100,160 l 5,0 0,5 -5,0 z M 105,160 l 5,0 0,5 -5,0 z M 125,160 l 5,0 0,5 -5,0 z M 135,160 l 5,0 0,5 -5,0 z M 155,160 l 5,0 0,5 -5,0 z M 160,160 l 5,0 0,5 -5,0 z M 180,160 l 5,0 0,5 -5,0 z M 185,160 l 5,0 0,5 -5,0 z M 195,160 l 5,0 0,5 -5,0 z M 200,160 l 5,0 0,5 -5,0 z M 210,160 l 5,0 0,5 -5,0 z M 215,160 l 5,0 0,5 -5,0 z M 220,160 l 5,0 0,5 -5,0 z M 225,160 l 5,0 0,5 -5,0 z M 230,160 l 5,0 0,5 -5,0 z M 235,160 l 5,0 0,5 -5,0 z M 240,160 l 5,0 0,5 -5,0 z M 5,165 l 5,0 0,5 -5,0 z M 10,165 l 5,0 0,5 -5,0 z M 15,165 l 5,0 0,5 -5,0 z M 20,165 l 5,0 0,5 -5,0 z M 40,165 l 5,0 0,5 -5,0 z M 60,165 l 5,0 0,5 -5,0 z M 65,165 l 5,0 0,5 -5,0 z M 70,165 l 5,0 0,5 -5,0 z M 80,165 l 5,0 0,5 -5,0 z M 105,165 l 5,0 0,5 -5,0 z M 110,165 l 5,0 0,5 -5,0 z M 130,165 l 5,0 0,5 -5,0 z M 135,165 l 5,0 0,5 -5,0 z M 160,165 l 5,0 0,5 -5,0 z M 165,165 l 5,0 0,5 -5,0 z M 200,165 l 5,0 0,5 -5,0 z M 205,165 l 5,0 0,5 -5,0 z M 20,170 l 5,0 0,5 -5,0 z M 25,170 l 5,0 0,5 -5,0 z M 30,170 l 5,0 0,5 -5,0 z M 35,170 l 5,0 0,5 -5,0 z M 40,170 l 5,0 0,5 -5,0 z M 50,170 l 5,0 0,5 -5,0 z M 55,170 l 5,0 0,5 -5,0 z M 65,170 l 5,0 0,5 -5,0 z M 70,170 l 5,0 0,5 -5,0 z M 75,170 l 5,0 0,5 -5,0 z M 80,170 l 5,0 0,5 -5,0 z M 85,170 l 5,0 0,5 -5,0 z M 90,170 l 5,0 0,5 -5,0 z M 100,170 l 5,0 0,5 -5,0 z M 115,170 l 5,0 0,5 -5,0 z M 135,170 l 5,0 0,5 -5,0 z M 140,170 l 5,0 0,5 -5,0 z M 150,170 l 5,0 0,5 -5,0 z M 155,170 l 5,0 0,5 -5,0 z M 160,170 l 5,0 0,5 -5,0 z M 170,170 l 5,0 0,5 -5,0 z M 175,170 l 5,0 0,5 -5,0 z M 180,170 l 5,0 0,5 -5,0 z M 185,170 l 5,0 0,5 -5,0 z M 190,170 l 5,0 0,5 -5,0 z M 200,170 l 5,0 0,5 -5,0 z M 205,170 l 5,0 0,5 -5,0 z M 210,170 l 5,0 0,5 -5,0 z M 215,170 l 5,0 0,5 -5,0 z M 230,170 l 5,0 0,5 -5,0 z M 235,170 l 5,0 0,5 -5,0 z M 240,170 l 5,0 0,5 -5,0 z M 5,175 l 5,0 0,5 -5,0 z M 10,175 l 5,0 0,5 -5,0 z M 15,175 l 5,0 0,5 -5,0 z M 25,175 l 5,0 0,5 -5,0 z M 50,175 l 5,0 0,5 -5,0 z M 75,175 l 5,0 0,5 -5,0 z M 80,175 l 5,0 0,5 -5,0 z M 85,175 l 5,0 0,5 -5,0 z M 100,175 l 5,0 0,5 -5,0 z M 120,175 l 5,0 0,5 -5,0 z M 125,175 l 5,0 0,5 -5,0 z M 130,175 l 5,0 0,5 -5,0 z M 155,175 l 5,0 0,5 -5,0 z M 160,175 l 5,0 0,5 -5,0 z M 185,175 l 5,0 0,5 -5,0 z M 190,175 l 5,0 0,5 -5,0 z M 200,175 l 5,0 0,5 -5,0 z M 215,175 l 5,0 0,5 -5,0 z M 220,175 l 5,0 0,5 -5,0 z M 225,175 l 5,0 0,5 -5,0 z M 235,175 l 5,0 0,5 -5,0 z M 240,175 l 5,0 0,5 -5,0 z M 5,180 l 5,0 0,5 -5,0 z M 10,180 l 5,0 0,5 -5,0 z M 15,180 l 5,0 0,5 -5,0 z M 30,180 l 5,0 0,5 -5,0 z M 35,180 l 5,0 0,5 -5,0 z M 40,180 l 5,0 0,5 -5,0 z M 45,180 l 5,0 0,5 -5,0 z M 50,180 l 5,0 0,5 -5,0 z M 75,180 l 5,0 0,5 -5,0 z M 80,180 l 5,0 0,5 -5,0 z M 85,180 l 5,0 0,5 -5,0 z M 115,180 l 5,0 0,5 -5,0 z M 120,180 l 5,0 0,5 -5,0 z M 125,180 l 5,0 0,5 -5,0 z M 130,180 l 5,0 0,5 -5,0 z M 135,180 l 5,0 0,5 -5,0 z M 165,180 l 5,0 0,5 -5,0 z M 170,180 l 5,0 0,5 -5,0 z M 175,180 l 5,0 0,5 -5,0 z M 180,180 l 5,0 0,5 -5,0 z M 185,180 l 5,0 0,5 -5,0 z M 195,180 l 5,0 0,5 -5,0 z M 210,180 l 5,0 0,5 -5,0 z M 215,180 l 5,0 0,5 -5,0 z M 220,180 l 5,0 0,5 -5,0 z M 225,180 l 5,0 0,5 -5,0 z M 230,180 l 5,0 0,5 -5,0 z M 240,180 l 5,0 0,5 -5,0 z M 10,185 l 5,0 0,5 -5,0 z M 20,185 l 5,0 0,5 -5,0 z M 45,185 l 5,0 0,5 -5,0 z M 50,185 l 5,0 0,5 -5,0 z M 55,185 l 5,0 0,5 -5,0 z M 65,185 l 5,0 0,5 -5,0 z M 70,185 l 5,0 0,5 -5,0 z M 75,185 l 5,0 0,5 -5,0 z M 80,185 l 5,0 0,5 -5,0 z M 90,185 l 5,0 0,5 -5,0 z M 95,185 l 5,0 0,5 -5,0 z M 110,185 l 5,0 0,5 -5,0 z M 125,185 l 5,0 0,5 -5,0 z M 150,185 l 5,0 0,5 -5,0 z M 155,185 l 5,0 0,5 -5,0 z M 165,185 l 5,0 0,5 -5,0 z M 180,185 l 5,0 0,5 -5,0 z M 195,185 l 5,0 0,5 -5,0 z M 5,190 l 5,0 0,5 -5,0 z M 25,190 l 5,0 0,5 -5,0 z M 30,190 l 5,0 0,5 -5,0 z M 40,190 l 5,0 0,5 -5,0 z M 65,190 l 5,0 0,5 -5,0 z M 70,190 l 5,0 0,5 -5,0 z M 75,190 l 5,0 0,5 -5,0 z M 80,190 l 5,0 0,5 -5,0 z M 100,190 l 5,0 0,5 -5,0 z M 105,190 l 5,0 0,5 -5,0 z M 115,190 l 5,0 0,5 -5,0 z M 125,190 l 5,0 0,5 -5,0 z M 130,190 l 5,0 0,5 -5,0 z M 135,190 l 5,0 0,5 -5,0 z M 140,190 l 5,0 0,5 -5,0 z M 150,190 l 5,0 0,5 -5,0 z M 155,190 l 5,0 0,5 -5,0 z M 160,190 l 5,0 0,5 -5,0 z M 165,190 l 5,0 0,5 -5,0 z M 170,190 l 5,0 0,5 -5,0 z M 185,190 l 5,0 0,5 -5,0 z M 190,190 l 5,0 0,5 -5,0 z M 200,190 l 5,0 0,5 -5,0 z M 210,190 l 5,0 0,5 -5,0 z M 215,190 l 5,0 0,5 -5,0 z M 220,190 l 5,0 0,5 -5,0 z M 235,190 l 5,0 0,5 -5,0 z M 240,190 l 5,0 0,5 -5,0 z M 5,195 l 5,0 0,5 -5,0 z M 10,195 l 5,0 0,5 -5,0 z M 15,195 l 5,0 0,5 -5,0 z M 35,195 l 5,0 0,5 -5,0 z M 60,195 l 5,0 0,5 -5,0 z M 70,195 l 5,0 0,5 -5,0 z M 80,195 l 5,0 0,5 -5,0 z M 85,195 l 5,0 0,5 -5,0 z M 95,195 l 5,0 0,5 -5,0 z M 100,195 l 5,0 0,5 -5,0 z M 110,195 l 5,0 0,5 -5,0 z M 115,195 l 5,0 0,5 -5,0 z M 130,195 l 5,0 0,5 -5,0 z M 140,195 l 5,0 0,5 -5,0 z M 150,195 l 5,0 0,5 -5,0 z M 160,195 l 5,0 0,5 -5,0 z M 165,195 l 5,0 0,5 -5,0 z M 205,195 l 5,0 0,5 -5,0 z M 215,195 l 5,0 0,5 -5,0 z M 220,195 l 5,0 0,5 -5,0 z M 225,195 l 5,0 0,5 -5,0 z M 235,195 l 5,0 0,5 -5,0 z M 240,195 l 5,0 0,5 -5,0 z M 0,200 l 5,0 0,5 -5,0 z M 5,200 l 5,0 0,5 -5,0 z M 10,200 l 5,0 0,5 -5,0 z M 30,200 l 5,0 0,5 -5,0 z M 35,200 l 5,0 0,5 -5,0 z M 40,200 l 5,0 0,5 -5,0 z M 45,200 l 5,0 0,5 -5,0 z M 50,200 l 5,0 0,5 -5,0 z M 60,200 l 5,0 0,5 -5,0 z M 70,200 l 5,0 0,5 -5,0 z M 85,200 l 5,0 0,5 -5,0 z M 105,200 l 5,0 0,5 -5,0 z M 110,200 l 5,0 0,5 -5,0 z M 115,200 l 5,0 0,5 -5,0 z M 120,200 l 5,0 0,5 -5,0 z M 125,200 l 5,0 0,5 -5,0 z M 130,200 l 5,0 0,5 -5,0 z M 140,200 l 5,0 0,5 -5,0 z M 145,200 l 5,0 0,5 -5,0 z M 155,200 l 5,0 0,5 -5,0 z M 175,200 l 5,0 0,5 -5,0 z M 180,200 l 5,0 0,5 -5,0 z M 190,200 l 5,0 0,5 -5,0 z M 195,200 l 5,0 0,5 -5,0 z M 200,200 l 5,0 0,5 -5,0 z M 205,200 l 5,0 0,5 -5,0 z M 210,200 l 5,0 0,5 -5,0 z M 215,200 l 5,0 0,5 -5,0 z M 220,200 l 5,0 0,5 -5,0 z M 230,200 l 5,0 0,5 -5,0 z M 235,200 l 5,0 0,5 -5,0 z M 240,200 l 5,0 0,5 -5,0 z M 40,205 l 5,0 0,5 -5,0 z M 45,205 l 5,0 0,5 -5,0 z M 55,205 l 5,0 0,5 -5,0 z M 60,205 l 5,0 0,5 -5,0 z M 85,205 l 5,0 0,5 -5,0 z M 100,205 l 5,0 0,5 -5,0 z M 110,205 l 5,0 0,5 -5,0 z M 130,205 l 5,0 0,5 -5,0 z M 135,205 l 5,0 0,5 -5,0 z M 140,205 l 5,0 0,5 -5,0 z M 145,205 l 5,0 0,5 -5,0 z M 155,205 l 5,0 0,5 -5,0 z M 160,205 l 5,0 0,5 -5,0 z M 165,205 l 5,0 0,5 -5,0 z M 175,205 l 5,0 0,5 -5,0 z M 190,205 l 5,0 0,5 -5,0 z M 200,205 l 5,0 0,5 -5,0 z M 220,205 l 5,0 0,5 -5,0 z M 0,210 l 5,0 0,5 -5,0 z M 5,210 l 5,0 0,5 -5,0 z M 10,210 l 5,0 0,5 -5,0 z M 15,210 l 5,0 0,5 -5,0 z M 20,210 l 5,0 0,5 -5,0 z M 25,210 l 5,0 0,5 -5,0 z M 30,210 l 5,0 0,5 -5,0 z M 45,210 l 5,0 0,5 -5,0 z M 55,210 l 5,0 0,5 -5,0 z M 60,210 l 5,0 0,5 -5,0 z M 80,210 l 5,0 0,5 -5,0 z M 95,210 l 5,0 0,5 -5,0 z M 100,210 l 5,0 0,5 -5,0 z M 105,210 l 5,0 0,5 -5,0 z M 110,210 l 5,0 0,5 -5,0 z M 120,210 l 5,0 0,5 -5,0 z M 130,210 l 5,0 0,5 -5,0 z M 175,210 l 5,0 0,5 -5,0 z M 180,210 l 5,0 0,5 -5,0 z M 185,210 l 5,0 0,5 -5,0 z M 190,210 l 5,0 0,5 -5,0 z M 200,210 l 5,0 0,5 -5,0 z M 210,210 l 5,0 0,5 -5,0 z M 220,210 l 5,0 0,5 -5,0 z M 225,210 l 5,0 0,5 -5,0 z M 235,210 l 5,0 0,5 -5,0 z M 240,210 l 5,0 0,5 -5,0 z M 0,215 l 5,0 0,5 -5,0 z M 30,215 l 5,0 0,5 -5,0 z M 45,215 l 5,0 0,5 -5,0 z M 60,215 l 5,0 0,5 -5,0 z M 75,215 l 5,0 0,5 -5,0 z M 80,215 l 5,0 0,5 -5,0 z M 110,215 l 5,0 0,5 -5,0 z M 130,215 l 5,0 0,5 -5,0 z M 160,215 l 5,0 0,5 -5,0 z M 165,215 l 5,0 0,5 -5,0 z M 185,215 l 5,0 0,5 -5,0 z M 190,215 l 5,0 0,5 -5,0 z M 195,215 l 5,0 0,5 -5,0 z M 200,215 l 5,0 0,5 -5,0 z M 220,215 l 5,0 0,5 -5,0 z M 0,220 l 5,0 0,5 -5,0 z M 10,220 l 5,0 0,5 -5,0 z M 15,220 l 5,0 0,5 -5,0 z M 20,220 l 5,0 0,5 -5,0 z M 30,220 l 5,0 0,5 -5,0 z M 40,220 l 5,0 0,5 -5,0 z M 45,220 l 5,0 0,5 -5,0 z M 50,220 l 5,0 0,5 -5,0 z M 60,220 l 5,0 0,5 -5,0 z M 70,220 l 5,0 0,5 -5,0 z M 75,220 l 5,0 0,5 -5,0 z M 80,220 l 5,0 0,5 -5,0 z M 90,220 l 5,0 0,5 -5,0 z M 95,220 l 5,0 0,5 -5,0 z M 100,220 l 5,0 0,5 -5,0 z M 110,220 l 5,0 0,5 -5,0 z M 115,220 l 5,0 0,5 -5,0 z M 120,220 l 5,0 0,5 -5,0 z M 125,220 l 5,0 0,5 -5,0 z M 130,220 l 5,0 0,5 -5,0 z M 145,220 l 5,0 0,5 -5,0 z M 155,220 l 5,0 0,5 -5,0 z M 175,220 l 5,0 0,5 -5,0 z M 180,220 l 5,0 0,5 -5,0 z M 185,220 l 5,0 0,5 -5,0 z M 190,220 l 5,0 0,5 -5,0 z M 195,220 l 5,0 0,5 -5,0 z M 200,220 l 5,0 0,5 -5,0 z M 205,220 l 5,0 0,5 -5,0 z M 210,220 l 5,0 0,5 -5,0 z M 215,220 l 5,0 0,5 -5,0 z M 220,220 l 5,0 0,5 -5,0 z M 230,220 l 5,0 0,5 -5,0 z M 235,220 l 5,0 0,5 -5,0 z M 0,225 l 5,0 0,5 -5,0 z M 10,225 l 5,0 0,5 -5,0 z M 15,225 l 5,0 0,5 -5,0 z M 20,225 l 5,0 0,5 -5,0 z M 30,225 l 5,0 0,5 -5,0 z M 40,225 l 5,0 0,5 -5,0 z M 45,225 l 5,0 0,5 -5,0 z M 50,225 l 5,0 0,5 -5,0 z M 55,225 l 5,0 0,5 -5,0 z M 70,225 l 5,0 0,5 -5,0 z M 75,225 l 5,0 0,5 -5,0 z M 80,225 l 5,0 0,5 -5,0 z M 85,225 l 5,0 0,5 -5,0 z M 90,225 l 5,0 0,5 -5,0 z M 95,225 l 5,0 0,5 -5,0 z M 100,225 l 5,0 0,5 -5,0 z M 105,225 l 5,0 0,5 -5,0 z M 115,225 l 5,0 0,5 -5,0 z M 120,225 l 5,0 0,5 -5,0 z M 135,225 l 5,0 0,5 -5,0 z M 140,225 l 5,0 0,5 -5,0 z M 145,225 l 5,0 0,5 -5,0 z M 150,225 l 5,0 0,5 -5,0 z M 160,225 l 5,0 0,5 -5,0 z M 185,225 l 5,0 0,5 -5,0 z M 195,225 l 5,0 0,5 -5,0 z M 200,225 l 5,0 0,5 -5,0 z M 205,225 l 5,0 0,5 -5,0 z M 210,225 l 5,0 0,5 -5,0 z M 220,225 l 5,0 0,5 -5,0 z M 240,225 l 5,0 0,5 -5,0 z M 0,230 l 5,0 0,5 -5,0 z M 10,230 l 5,0 0,5 -5,0 z M 15,230 l 5,0 0,5 -5,0 z M 20,230 l 5,0 0,5 -5,0 z M 30,230 l 5,0 0,5 -5,0 z M 40,230 l 5,0 0,5 -5,0 z M 45,230 l 5,0 0,5 -5,0 z M 65,230 l 5,0 0,5 -5,0 z M 70,230 l 5,0 0,5 -5,0 z M 90,230 l 5,0 0,5 -5,0 z M 95,230 l 5,0 0,5 -5,0 z M 100,230 l 5,0 0,5 -5,0 z M 145,230 l 5,0 0,5 -5,0 z M 165,230 l 5,0 0,5 -5,0 z M 170,230 l 5,0 0,5 -5,0 z M 175,230 l 5,0 0,5 -5,0 z M 180,230 l 5,0 0,5 -5,0 z M 190,230 l 5,0 0,5 -5,0 z M 205,230 l 5,0 0,5 -5,0 z M 210,230 l 5,0 0,5 -5,0 z M 225,230 l 5,0 0,5 -5,0 z M 235,230 l 5,0 0,5 -5,0 z M 240,230 l 5,0 0,5 -5,0 z M 0,235 l 5,0 0,5 -5,0 z M 30,235 l 5,0 0,5 -5,0 z M 50,235 l 5,0 0,5 -5,0 z M 85,235 l 5,0 0,5 -5,0 z M 105,235 l 5,0 0,5 -5,0 z M 125,235 l 5,0 0,5 -5,0 z M 140,235 l 5,0 0,5 -5,0 z M 150,235 l 5,0 0,5 -5,0 z M 155,235 l 5,0 0,5 -5,0 z M 160,235 l 5,0 0,5 -5,0 z M 165,235 l 5,0 0,5 -5,0 z M 170,235 l 5,0 0,5 -5,0 z M 190,235 l 5,0 0,5 -5,0 z M 210,235 l 5,0 0,5 -5,0 z M 225,235 l 5,0 0,5 -5,0 z M 240,235 l 5,0 0,5 -5,0 z M 0,240 l 5,0 0,5 -5,0 z M 5,240 l 5,0 0,5 -5,0 z M 10,240 l 5,0 0,5 -5,0 z M 15,240 l 5,0 0,5 -5,0 z M 20,240 l 5,0 0,5 -5,0 z M 25,240 l 5,0 0,5 -5,0 z M 30,240 l 5,0 0,5 -5,0 z M 45,240 l 5,0 0,5 -5,0 z M 50,240 l 5,0 0,5 -5,0 z M 55,240 l 5,0 0,5 -5,0 z M 75,240 l 5,0 0,5 -5,0 z M 95,240 l 5,0 0,5 -5,0 z M 105,240 l 5,0 0,5 -5,0 z M 110,240 l 5,0 0,5 -5,0 z M 120,240 l 5,0 0,5 -5,0 z M 125,240 l 5,0 0,5 -5,0 z M 135,240 l 5,0 0,5 -5,0 z M 140,240 l 5,0 0,5 -5,0 z M 155,240 l 5,0 0,5 -5,0 z M 170,240 l 5,0 0,5 -5,0 z M 175,240 l 5,0 0,5 -5,0 z M 180,240 l 5,0 0,5 -5,0 z M 195,240 l 5,0 0,5 -5,0 z M 200,240 l 5,0 0,5 -5,0 z M 205,240 l 5,0 0,5 -5,0 z M 225,240 l 5,0 0,5 -5,0 z M 230,240 l 5,0 0,5 -5,0 z M 235,240 l 5,0 0,5 -5,0 z M 240,240 l 5,0 0,5 -5,0 z " />
	</g>
</svg>
